#!OML:ASF C:\Vicon Data\Big\jianyuan-13\jianyuan\Session 1\Capture.male.ASF
:FULLY-SPECIFIED
:DEGREES
84
root -8.786709 18.019832 -19.123234 3.430338 14.471924 5.058513
lowerback -3.403149 1.563148 -4.498356 
upperback 4.693980 2.494996 -1.571323 
thorax 6.692290 1.051695 1.101799 
lowerneck -0.762364 -3.791363 2.116370 
upperneck 15.973009 -5.180453 -0.289730 
head 4.857572 -2.416020 -0.662170 
rclavicle 0.000000 0.000000 
rhumerus -35.942056 -14.365084 -83.143032 
rradius 40.699152 
rwrist 20.899617 
rhand -18.600769 -18.897016 
rfingers 0.000000 
rthumb 7.690510 -48.737176 
lclavicle 0.000000 0.000000 
lhumerus -32.152262 25.091439 74.977188 
lradius 29.085677 
lwrist -48.736957 
lhand -18.338441 1.715766 
lfingers 0.000000 
lthumb 7.943706 31.546477 
rfemur -8.322291 4.754748 21.744757 
rtibia 24.170458 
rfoot -20.217787 -10.184618 
rtoes -22.690740 
lfemur -65.340598 0.937200 -19.527835 
ltibia 57.665026 
lfoot -13.733597 -5.010657 
ltoes -45.489094 
85
root -8.769466 18.010287 -19.034812 3.214407 14.265111 5.007480
lowerback -3.486582 1.620371 -4.445024 
upperback 4.703218 2.571943 -1.544230 
thorax 6.747232 1.090099 1.109974 
lowerneck -0.738251 -3.761868 2.037763 
upperneck 15.888912 -5.135798 -0.283829 
head 4.830177 -2.399742 -0.643960 
rclavicle 0.000000 0.000000 
rhumerus -36.034690 -14.449257 -83.025144 
rradius 40.575266 
rwrist 21.044543 
rhand -18.641363 -19.025563 
rfingers 0.000000 
rthumb 7.651322 -48.867188 
lclavicle 0.000000 0.000000 
lhumerus -32.339316 25.075934 74.927157 
lradius 29.089981 
lwrist -48.514410 
lhand -18.569968 1.819582 
lfingers 0.000000 
lthumb 7.720216 31.658637 
rfemur -7.724549 4.920654 21.874996 
rtibia 24.058213 
rfoot -20.377832 -10.204514 
rtoes -22.744287 
lfemur -64.396287 0.806827 -19.391993 
ltibia 56.763503 
lfoot -13.709370 -4.804572 
ltoes -45.796375 
86
root -8.749233 18.005720 -18.938259 3.039468 13.895474 4.961372
lowerback -3.756312 1.713053 -4.370945 
upperback 4.721295 2.709023 -1.554705 
thorax 6.919513 1.157358 1.079681 
lowerneck -0.720518 -3.711647 2.090745 
upperneck 15.825313 -5.058433 -0.368770 
head 4.804671 -2.365003 -0.674161 
rclavicle 0.000000 0.000000 
rhumerus -36.161883 -14.535967 -82.976013 
rradius 40.488970 
rwrist 21.166261 
rhand -18.528376 -18.836515 
rfingers 0.000000 
rthumb 7.760408 -48.674094 
lclavicle 0.000000 0.000000 
lhumerus -32.536376 25.146146 74.730346 
lradius 29.027799 
lwrist -48.485684 
lhand -18.529372 1.780747 
lfingers 0.000000 
lthumb 7.759430 31.618325 
rfemur -7.190789 5.057081 21.960391 
rtibia 24.010689 
rfoot -20.555160 -10.031439 
rtoes -22.751140 
lfemur -63.391193 0.810751 -19.260847 
ltibia 55.882924 
lfoot -13.775273 -4.516379 
ltoes -45.600517 
87
root -8.734003 17.990158 -18.851874 2.945011 13.672431 4.841155
lowerback -3.955044 1.767857 -4.366992 
upperback 4.693761 2.785627 -1.440944 
thorax 6.995816 1.190182 1.210146 
lowerneck -0.723059 -3.702104 2.069766 
upperneck 15.775053 -5.023829 -0.516760 
head 4.786223 -2.358618 -0.714042 
rclavicle 0.000000 0.000000 
rhumerus -36.220835 -14.611401 -82.816250 
rradius 40.476480 
rwrist 20.898907 
rhand -18.522767 -19.025571 
rfingers 0.000000 
rthumb 7.765806 -48.862958 
lclavicle 0.000000 0.000000 
lhumerus -32.790922 25.427609 74.583774 
lradius 28.965534 
lwrist -48.668189 
lhand -18.272530 1.465132 
lfingers 0.000000 
lthumb 8.007352 31.293471 
rfemur -6.886759 5.149776 22.147071 
rtibia 24.196197 
rfoot -20.867810 -9.932165 
rtoes -22.703319 
lfemur -62.527747 0.813925 -19.145235 
ltibia 55.034969 
lfoot -13.759576 -4.147971 
ltoes -45.821047 
88
root -8.714620 17.973027 -18.767172 2.971785 13.525769 4.754915
lowerback -4.241546 1.731998 -4.009391 
upperback 4.626804 2.737453 -1.630883 
thorax 7.116759 1.188431 0.817480 
lowerneck -0.748063 -3.591895 2.316930 
upperneck 15.749475 -4.886195 -0.547721 
head 4.777522 -2.280098 -0.758458 
rclavicle 0.000000 0.000000 
rhumerus -36.330043 -14.670848 -83.128436 
rradius 40.403824 
rwrist 21.160841 
rhand -18.846545 -19.134631 
rfingers 0.000000 
rthumb 7.453230 -48.983306 
lclavicle 0.000000 0.000000 
lhumerus -33.003618 25.444569 74.002654 
lradius 28.873611 
lwrist -48.873144 
lhand -18.278714 1.427981 
lfingers 0.000000 
lthumb 8.001344 31.256509 
rfemur -6.692509 5.150682 22.280885 
rtibia 24.340577 
rfoot -21.149963 -9.789036 
rtoes -22.869328 
lfemur -61.775450 0.872647 -19.177133 
ltibia 54.203414 
lfoot -13.811399 -3.575272 
ltoes -45.384066 
89
root -8.696783 17.956933 -18.677003 2.897971 13.334068 4.671123
lowerback -4.461875 1.742821 -4.104530 
upperback 4.573499 2.759748 -1.482930 
thorax 7.175173 1.188913 1.034337 
lowerneck -0.656202 -3.557835 2.246153 
upperneck 15.691658 -4.811199 -0.709136 
head 4.742455 -2.257685 -0.790591 
rclavicle 0.000000 0.000000 
rhumerus -36.390472 -14.461934 -82.973340 
rradius 40.306552 
rwrist 21.111110 
rhand -18.906234 -19.135251 
rfingers 0.000000 
rthumb 7.395673 -48.985970 
lclavicle 0.000000 0.000000 
lhumerus -33.321969 25.648089 73.901654 
lradius 28.766346 
lwrist -49.175853 
lhand -18.441289 1.643641 
lfingers 0.000000 
lthumb 7.844454 31.478128 
rfemur -6.339393 5.179776 22.428046 
rtibia 24.401680 
rfoot -21.344858 -9.711450 
rtoes -23.196942 
lfemur -60.846060 0.889565 -19.144944 
ltibia 53.356640 
lfoot -13.959031 -3.041695 
ltoes -45.571302 
90
root -8.680543 17.940466 -18.591161 2.927858 13.163506 4.511526
lowerback -4.780924 1.716374 -4.020134 
upperback 4.501984 2.726739 -1.394569 
thorax 7.284181 1.172337 1.086779 
lowerneck -0.636955 -3.488118 2.228579 
upperneck 15.679317 -4.694608 -0.866480 
head 4.733127 -2.211087 -0.830772 
rclavicle 0.000000 0.000000 
rhumerus -36.349285 -14.517355 -82.899954 
rradius 40.281408 
rwrist 21.197848 
rhand -18.634762 -19.069830 
rfingers 0.000000 
rthumb 7.657686 -48.911207 
lclavicle 0.000000 0.000000 
lhumerus -33.606690 26.036768 73.593501 
lradius 28.649227 
lwrist -49.247059 
lhand -18.172598 1.410533 
lfingers 0.000000 
lthumb 8.103794 31.235130 
rfemur -6.170105 5.359787 22.658786 
rtibia 24.554169 
rfoot -21.615198 -9.730941 
rtoes -23.297104 
lfemur -59.992864 0.971665 -19.082205 
ltibia 52.414756 
lfoot -14.124574 -2.537874 
ltoes -45.215860 
91
root -8.657157 17.923730 -18.503893 2.887195 13.012147 4.368783
lowerback -5.020488 1.695801 -3.848549 
upperback 4.455375 2.694040 -1.362261 
thorax 7.380082 1.162443 1.029385 
lowerneck -0.700119 -3.432081 2.306573 
upperneck 15.711940 -4.606199 -1.012088 
head 4.749339 -2.171785 -0.886466 
rclavicle 0.000000 0.000000 
rhumerus -36.368812 -14.631317 -82.917529 
rradius 40.259244 
rwrist 21.316939 
rhand -18.489301 -18.859228 
rfingers 0.000000 
rthumb 7.798110 -48.695483 
lclavicle 0.000000 0.000000 
lhumerus -33.908947 26.351091 73.195051 
lradius 28.471372 
lwrist -49.913381 
lhand -18.378511 1.602460 
lfingers 0.000000 
lthumb 7.905011 31.434678 
rfemur -5.942319 5.259194 22.805685 
rtibia 24.779107 
rfoot -21.872105 -9.467437 
rtoes -23.352268 
lfemur -58.960588 1.000844 -19.054462 
ltibia 51.361129 
lfoot -14.215956 -1.999100 
ltoes -44.860051 
92
root -8.637459 17.905487 -18.416459 2.813185 12.802062 4.187693
lowerback -5.208771 1.685047 -3.706936 
upperback 4.392712 2.669729 -1.285417 
thorax 7.425055 1.155032 1.033958 
lowerneck -0.670838 -3.348630 2.242077 
upperneck 15.732363 -4.476876 -1.107313 
head 4.751623 -2.117687 -0.899714 
rclavicle 0.000000 0.000000 
rhumerus -36.482041 -14.464773 -82.920761 
rradius 40.347245 
rwrist 21.059766 
rhand -18.525535 -18.839846 
rfingers 0.000000 
rthumb 7.763119 -48.677351 
lclavicle 0.000000 0.000000 
lhumerus -34.256150 26.710923 72.790257 
lradius 28.351583 
lwrist -50.235786 
lhand -18.317700 1.603527 
lfingers 0.000000 
lthumb 7.963695 31.433523 
rfemur -5.621296 5.411109 23.046231 
rtibia 24.904034 
rfoot -22.141012 -9.420479 
rtoes -23.493992 
lfemur -57.807725 1.125927 -18.978567 
ltibia 50.165263 
lfoot -14.150879 -1.543623 
ltoes -44.907418 
93
root -8.613113 17.886072 -18.327045 2.810563 12.673122 4.000581
lowerback -5.459647 1.664252 -3.523515 
upperback 4.305296 2.629328 -1.201062 
thorax 7.481800 1.141640 1.022983 
lowerneck -0.676205 -3.296387 2.185003 
upperneck 15.779297 -4.390182 -1.209023 
head 4.766911 -2.084123 -0.918945 
rclavicle 0.000000 0.000000 
rhumerus -36.620173 -14.516741 -82.840202 
rradius 40.471655 
rwrist 20.961563 
rhand -18.824352 -19.118695 
rfingers 0.000000 
rthumb 7.474669 -48.966612 
lclavicle 0.000000 0.000000 
lhumerus -34.636197 27.060595 72.408577 
lradius 28.275143 
lwrist -50.630120 
lhand -18.189513 1.498668 
lfingers 0.000000 
lthumb 8.087448 31.323892 
rfemur -5.340719 5.360460 23.257601 
rtibia 24.943766 
rfoot -22.364260 -9.270051 
rtoes -23.805359 
lfemur -56.680281 1.064785 -18.825420 
ltibia 48.845121 
lfoot -14.068152 -1.025923 
ltoes -45.113132 
